<?xml version="1.0" standalone="no"?>
<!DOCTYPE svg PUBLIC "-//W3C//DTD SVG 20010904//EN"
 "http://www.w3.org/TR/2001/REC-SVG-20010904/DTD/svg10.dtd">
<svg version="1.0" xmlns="http://www.w3.org/2000/svg"
 width="1536.000000pt" height="1024.000000pt" viewBox="0 0 1536.000000 1024.000000"
 preserveAspectRatio="xMidYMid meet">

<g transform="translate(0.000000,1024.000000) scale(0.100000,-0.100000)"
fill="#000000" stroke="none">
<path d="M2117 6909 c-9 -6 -15 -15 -11 -20 3 -5 0 -8 -8 -7 -11 3 -13 -317
-16 -1839 l-2 -1842 26 -20 c27 -21 28 -21 1221 -21 l1194 0 24 25 25 24 0
1825 0 1825 -24 28 -24 28 -1194 2 c-810 2 -1199 -1 -1211 -8z m2223 -1862 c0
-1241 -3 -1616 -12 -1625 -17 -17 -103 -15 -137 3 -16 8 -55 45 -87 82 -68 78
-83 92 -104 93 -8 0 -48 -34 -89 -76 -89 -91 -124 -114 -171 -114 -42 0 -71
16 -53 28 20 13 63 131 74 207 14 89 7 154 -31 285 -52 178 -37 280 56 383
117 129 117 310 1 443 -22 26 -65 55 -112 79 -57 28 -74 41 -71 54 216 699
234 743 314 757 56 10 82 30 82 64 0 26 -5 31 -42 41 -24 7 -44 13 -46 15 -2
1 4 20 13 42 l17 41 46 -5 c51 -5 66 1 75 31 9 27 0 39 -50 64 l-43 21 18 46
c10 25 21 46 25 46 4 0 26 -3 49 -7 34 -6 44 -4 55 11 25 34 16 64 -24 81 -49
20 -47 16 -33 58 17 51 6 59 -129 100 -168 50 -171 50 -199 -8 -20 -42 -25
-46 -43 -37 -11 6 -34 10 -52 8 -29 -3 -32 -6 -35 -41 -3 -36 -1 -39 38 -54
44 -18 45 -22 20 -88 -9 -24 -13 -25 -58 -19 -45 6 -49 4 -60 -21 -16 -35 -2
-60 43 -75 39 -13 42 -24 20 -76 -14 -35 -15 -35 -59 -29 -43 7 -45 6 -52 -21
-6 -22 -2 -31 17 -46 58 -46 59 -47 59 -95 0 -29 -20 -113 -51 -213 -101 -328
-169 -544 -172 -547 -2 -1 -19 2 -38 7 -140 40 -298 0 -378 -97 -54 -65 -71
-128 -71 -258 0 -171 -12 -196 -169 -359 -179 -187 -208 -254 -195 -457 4 -76
3 -113 -6 -130 -17 -33 -141 -159 -157 -159 -11 0 -13 212 -13 1090 l0 1090
409 0 c369 0 409 2 415 16 4 9 6 231 6 493 0 262 0 479 0 484 0 4 268 7 595 7
l595 0 0 -1613z m-1622 1411 c18 -67 34 -123 36 -125 1 -1 56 -3 121 -4 65 0
124 -3 132 -6 20 -8 2 -27 -82 -83 -116 -79 -112 -68 -70 -204 33 -105 37
-136 17 -136 -4 0 -47 32 -96 70 -48 39 -93 70 -100 70 -6 0 -49 -32 -96 -70
-74 -61 -120 -85 -120 -63 0 3 16 57 36 120 20 63 33 120 30 128 -6 16 -162
135 -177 135 -17 0 -9 30 9 31 9 1 66 4 126 8 l109 6 35 123 c19 67 40 122 46
122 6 0 26 -55 44 -122z m679 -1983 c55 -33 83 -86 83 -157 0 -100 -69 -169
-175 -176 -118 -8 -205 66 -205 174 0 154 159 239 297 159z"/>
<path d="M5084 5227 c-2 -7 -3 -56 -2 -108 l3 -94 122 -3 123 -3 2 -467 3
-467 113 -3 112 -3 0 471 0 470 130 0 131 0 -3 108 -3 107 -363 3 c-295 2
-363 0 -368 -11z"/>
<path d="M5930 4801 c0 -410 1 -443 20 -503 25 -82 81 -147 158 -185 54 -26
65 -28 187 -28 122 0 133 2 182 28 104 54 164 145 183 274 13 91 13 836 0 828
-6 -3 -7 1 -4 10 6 14 -6 15 -102 13 l-109 -3 -5 -425 c-5 -396 -6 -427 -24
-453 -26 -38 -71 -60 -124 -59 -50 1 -83 19 -109 59 -16 24 -18 68 -23 453
l-5 425 -112 3 -113 3 0 -440z"/>
<path d="M6815 5228 c-3 -7 -4 -267 -3 -578 l3 -565 160 -3 c211 -3 320 9 399
46 113 53 167 135 174 263 7 121 -32 207 -114 250 -24 13 -44 26 -44 29 1 3
20 17 44 32 118 75 141 285 46 415 -39 53 -132 100 -221 113 -101 15 -439 13
-444 -2z m436 -215 c40 -24 63 -76 55 -125 -14 -87 -66 -118 -196 -118 l-80 0
0 130 0 130 96 0 c72 0 103 -4 125 -17z m3 -466 c59 -39 81 -113 52 -180 -23
-55 -57 -70 -173 -75 l-103 -5 0 135 c0 74 3 138 8 142 14 15 187 1 216 -17z"/>
<path d="M7685 5228 c-3 -7 -4 -267 -3 -578 l3 -565 318 -3 317 -2 0 110 0
110 -205 0 -205 0 0 125 0 125 169 0 c132 0 171 3 180 14 8 9 11 47 9 107 l-3
94 -178 3 -178 2 3 128 3 127 203 3 202 2 0 105 0 105 -315 0 c-243 0 -317 -3
-320 -12z"/>
<path d="M8800 4661 l0 -581 168 0 c301 0 426 29 504 119 121 138 94 377 -51
446 -22 11 -41 23 -41 26 0 4 18 18 40 33 89 59 127 177 97 299 -9 37 -28 84
-42 104 -14 21 -25 35 -25 32 0 -4 -16 8 -35 26 -62 59 -102 67 -372 73 l-243
4 0 -581z m429 356 c40 -20 63 -60 63 -111 2 -93 -59 -136 -189 -136 l-83 0 0
130 0 130 93 0 c53 0 102 -6 116 -13z m-29 -456 c32 -7 54 -19 77 -45 29 -31
33 -43 33 -90 0 -99 -57 -136 -209 -136 l-81 0 0 133 c0 74 3 137 7 140 9 10
119 8 173 -2z"/>
<path d="M9886 5223 c-3 -10 -35 -153 -71 -318 -36 -165 -90 -410 -120 -544
-30 -134 -55 -252 -55 -263 0 -17 7 -18 112 -16 l111 3 22 105 21 105 144 0
145 0 20 -105 21 -105 117 -3 c64 -1 117 0 117 4 0 4 -31 142 -70 308 -97 423
-168 734 -176 781 -11 65 -10 65 -180 65 -137 0 -153 -2 -158 -17z m219 -459
c24 -121 47 -228 51 -237 5 -15 -5 -17 -100 -17 -58 0 -106 3 -106 6 0 11 92
458 97 474 7 21 8 20 58 -226z"/>
<path d="M10578 5134 c-2 -58 -1 -108 2 -110 2 -3 94 -4 205 -4 110 0 206 1
213 0 7 0 -3 -25 -26 -62 -52 -84 -381 -639 -390 -658 -4 -8 -7 -60 -7 -115
l0 -100 355 0 355 0 3 108 3 107 -221 0 c-121 0 -220 2 -220 5 0 2 31 55 68
117 38 62 137 231 220 374 l153 262 -3 88 -3 89 -352 3 -352 2 -3 -106z"/>
<path d="M11646 5223 c-5 -17 -141 -630 -206 -930 -16 -72 -33 -148 -39 -168
-7 -27 -7 -37 3 -41 7 -3 59 -3 117 -2 l104 3 17 85 c10 47 20 95 23 108 5 22
7 23 148 20 l142 -3 17 -85 c10 -47 20 -95 23 -107 5 -22 10 -23 115 -23 96 0
110 2 110 17 0 9 -18 95 -41 192 -92 397 -126 550 -197 866 l-17 80 -157 3
c-143 2 -157 1 -162 -15z m218 -458 c24 -121 46 -227 48 -235 2 -12 -15 -16
-99 -18 -57 -1 -103 1 -103 6 0 5 18 96 40 203 23 107 43 208 46 224 8 41 16
62 20 50 2 -5 23 -109 48 -230z"/>
<path d="M12530 5218 c-6 -13 -46 -187 -90 -388 -43 -201 -97 -445 -120 -542
-22 -98 -40 -184 -40 -193 0 -13 18 -15 110 -15 105 0 110 1 115 23 3 12 13
60 23 107 l17 85 141 3 141 3 7 -43 c4 -24 14 -73 22 -110 l16 -68 114 0 c105
0 115 2 110 18 -6 20 -132 567 -200 872 -26 113 -50 219 -54 235 l-8 30 -147
3 c-145 2 -147 2 -157 -20z m170 -251 c0 -23 74 -404 86 -439 5 -16 -4 -18
-95 -18 -82 0 -101 3 -101 15 0 8 18 101 40 207 23 106 44 208 47 226 6 37 23
43 23 9z"/>
<path d="M13178 5234 c-5 -4 -8 -265 -8 -581 l0 -573 115 0 115 0 2 211 3 212
50 0 50 0 22 -59 c19 -50 115 -314 128 -351 3 -10 36 -13 118 -13 63 0 116 2
119 5 5 5 -80 242 -142 395 l-22 55 24 18 c110 86 142 154 142 307 1 76 -4
119 -17 157 -20 58 -69 131 -95 140 -9 4 -25 14 -35 24 -44 40 -113 52 -342
57 -121 2 -223 1 -227 -4z m419 -224 c52 -31 67 -64 67 -144 1 -127 -40 -166
-181 -174 l-83 -5 0 172 0 171 83 0 c64 0 89 -4 114 -20z"/>
</g>
</svg>
