<?xml version="1.0" standalone="no"?>
<!DOCTYPE svg PUBLIC "-//W3C//DTD SVG 20010904//EN"
 "http://www.w3.org/TR/2001/REC-SVG-20010904/DTD/svg10.dtd">
<svg version="1.0" xmlns="http://www.w3.org/2000/svg"
 width="250.000000pt" height="150.000000pt" viewBox="0 0 250.000000 150.000000"
 preserveAspectRatio="xMidYMid meet">

<g transform="translate(0.000000,150.000000) scale(0.100000,-0.100000)"
fill="#000000" stroke="none">
<path d="M497 984 c-4 -4 -7 -128 -7 -276 l0 -268 195 0 195 0 -2 273 -3 272
-186 3 c-102 1 -188 -1 -192 -4z m353 -259 c0 -211 -2 -245 -15 -245 -8 0 -15
9 -15 19 0 31 -19 35 -30 7 -5 -14 -17 -26 -26 -26 -13 0 -16 7 -11 36 3 19 1
46 -5 59 -9 19 -7 30 6 49 21 33 20 45 -4 71 l-20 21 20 59 c11 33 24 62 29
65 5 3 12 17 16 31 5 21 2 27 -15 32 -33 9 -49 -2 -46 -31 2 -14 -6 -54 -17
-88 -19 -57 -23 -63 -54 -69 -35 -6 -57 -34 -47 -58 3 -9 -9 -29 -30 -51 -20
-19 -36 -44 -36 -54 0 -10 -7 -27 -15 -38 -13 -17 -14 -1 -15 149 l0 167 65 0
65 0 0 63 c0 35 3 67 7 70 3 4 48 7 100 7 l93 0 0 -245z m-236 195 c9 0 16 -4
16 -10 0 -5 -5 -10 -11 -10 -7 0 -9 -10 -7 -25 6 -27 -1 -32 -20 -13 -10 10
-17 10 -34 -1 -19 -12 -20 -11 -15 9 3 13 0 23 -9 27 -21 8 -17 23 6 23 11 0
23 7 27 16 6 16 7 16 18 0 7 -9 20 -16 29 -16z m95 -274 c18 -22 2 -46 -30
-46 -31 0 -45 19 -35 45 7 19 50 20 65 1z m-99 -145 c14 -28 13 -31 -16 -31
-20 0 -25 4 -20 16 3 9 6 20 6 25 0 16 19 10 30 -10z m110 11 c0 -12 -28 -48
-33 -42 -8 8 11 50 23 50 5 0 10 -4 10 -8z"/>
<path d="M940 936 c0 -9 12 -16 33 -18 l32 -3 3 -83 c2 -72 5 -83 20 -80 14 3
17 17 20 86 l3 82 29 0 c20 0 30 5 30 15 0 12 -16 15 -85 15 -67 0 -85 -3 -85
-14z"/>
<path d="M1140 873 c0 -84 4 -94 37 -112 36 -19 82 -13 108 14 22 21 25 33 25
100 0 68 -2 75 -20 75 -18 0 -20 -7 -20 -69 0 -77 -11 -94 -57 -89 -28 3 -28
4 -31 81 -3 69 -5 77 -22 77 -18 0 -20 -7 -20 -77z"/>
<path d="M1350 850 l0 -100 50 0 c27 0 61 5 75 12 33 15 43 53 21 77 -12 13
-14 21 -7 26 6 3 11 19 11 35 0 38 -23 50 -94 50 l-56 0 0 -100z m105 45 c0
-15 -8 -21 -32 -23 -30 -3 -33 -1 -33 23 0 24 3 26 33 23 24 -2 32 -8 32 -23z
m5 -70 c17 -21 3 -35 -36 -35 -30 0 -34 3 -34 25 0 21 5 25 29 25 16 0 34 -7
41 -15z"/>
<path d="M1550 850 l0 -100 65 0 c58 0 65 2 65 20 0 17 -7 20 -45 20 -41 0
-45 2 -45 25 0 23 4 25 40 25 29 0 40 4 40 15 0 11 -11 15 -40 15 -36 0 -40 3
-40 25 0 23 4 25 45 25 33 0 45 4 45 15 0 12 -14 15 -65 15 l-65 0 0 -100z"/>
<path d="M950 615 l0 -95 64 0 c45 0 69 5 80 16 21 20 20 48 -1 70 -13 13 -14
19 -5 22 6 2 12 17 12 32 0 38 -23 50 -94 50 l-56 0 0 -95z m105 40 c0 -15 -8
-21 -32 -23 -30 -3 -33 -1 -33 23 0 24 3 26 33 23 24 -2 32 -8 32 -23z m5 -80
c0 -22 -4 -25 -35 -25 -31 0 -35 3 -35 25 0 22 4 25 35 25 31 0 35 -3 35 -25z"/>
<path d="M1157 621 c-32 -107 -32 -101 -8 -101 10 0 21 9 24 20 4 16 14 20 45
20 31 0 41 -4 45 -20 3 -12 14 -20 27 -20 14 0 20 5 18 13 -3 6 -17 49 -32 95
-27 80 -28 82 -60 82 -32 0 -33 -1 -59 -89z m80 9 l10 -40 -29 0 c-24 0 -29 4
-24 16 3 9 9 27 12 40 9 35 18 30 31 -16z"/>
<path d="M1330 695 c0 -11 12 -15 45 -15 25 0 45 -2 45 -5 0 -3 -20 -33 -45
-67 -25 -34 -45 -68 -45 -75 0 -10 20 -13 75 -13 60 0 75 3 75 15 0 11 -12 15
-45 15 -25 0 -45 3 -45 6 0 3 20 34 45 68 25 35 45 69 45 75 0 7 -26 11 -75
11 -60 0 -75 -3 -75 -15z"/>
<path d="M1565 698 c-18 -49 -55 -163 -55 -170 0 -17 38 -7 43 12 4 16 14 20
45 20 32 0 42 -4 47 -20 4 -11 15 -20 27 -20 12 0 18 5 16 13 -3 6 -17 49 -32
95 -26 78 -29 82 -57 82 -16 0 -32 -6 -34 -12z m52 -68 l10 -40 -29 0 c-24 0
-29 4 -24 16 3 9 9 27 12 40 9 35 18 30 31 -16z"/>
<path d="M1765 698 c-18 -48 -55 -163 -55 -170 0 -17 39 -7 45 12 5 15 15 20
45 20 30 0 40 -5 45 -20 6 -19 45 -29 45 -12 0 4 -13 46 -28 92 -27 81 -30 85
-60 88 -20 2 -34 -2 -37 -10z m49 -52 c3 -13 9 -31 12 -40 5 -13 -1 -16 -26
-16 -25 0 -31 3 -26 16 3 9 9 27 12 40 3 13 10 24 14 24 4 0 11 -11 14 -24z"/>
<path d="M1920 615 c0 -87 2 -95 19 -95 15 0 21 8 23 32 4 44 24 46 49 4 15
-25 28 -36 45 -36 l23 0 -20 34 -20 35 20 20 c26 26 27 55 1 81 -16 16 -33 20
-80 20 l-60 0 0 -95z m98 56 c25 -16 9 -46 -26 -49 -28 -3 -32 0 -32 21 0 13
3 27 7 30 9 10 35 8 51 -2z"/>
</g>
</svg>
